<mxfile host="app.diagrams.net" modified="2020-11-17T14:34:22.351Z" agent="5.0 (Windows)" etag="3Ny9OsGvExH-J0Akf2GX" version="13.9.9" type="github">
  <diagram name="Page-1" id="55a83fd1-7818-8e21-69c5-c3457e3827bb">
    <mxGraphModel dx="1564" dy="808" grid="1" gridSize="10" guides="1" tooltips="1" connect="1" arrows="1" fold="1" page="1" pageScale="0.5" pageWidth="1169" pageHeight="827" background="#ffffff" math="0" shadow="0">
      <root>
        <mxCell id="0" />
        <mxCell id="1" parent="0" />
        <mxCell id="G7csEVz0UXpxjY1oYoXJ-40" style="edgeStyle=none;rounded=0;sketch=0;orthogonalLoop=1;jettySize=auto;html=1;exitX=0.5;exitY=0;exitDx=0;exitDy=0;exitPerimeter=0;shadow=0;startArrow=oval;startFill=1;startSize=0;endArrow=oval;endFill=1;endSize=0;fontFamily=Helvetica;fontSize=16;strokeColor=#FF6666;" parent="1" source="G7csEVz0UXpxjY1oYoXJ-6" target="G7csEVz0UXpxjY1oYoXJ-19" edge="1">
          <mxGeometry relative="1" as="geometry" />
        </mxCell>
        <mxCell id="G7csEVz0UXpxjY1oYoXJ-6" value="&lt;div style=&quot;font-size: 16px;&quot;&gt;&lt;font style=&quot;font-size: 16px;&quot; color=&quot;#000099&quot;&gt;VPN客户端&lt;/font&gt;&lt;/div&gt;&lt;div style=&quot;font-size: 16px;&quot;&gt;&lt;font style=&quot;font-size: 16px;&quot; color=&quot;#000099&quot;&gt;10.5.30.6&lt;br style=&quot;font-size: 16px;&quot;&gt;&lt;/font&gt;&lt;/div&gt;" style="fontColor=#0066CC;verticalAlign=top;verticalLabelPosition=bottom;labelPosition=center;align=center;html=1;outlineConnect=0;fillColor=#CCCCCC;strokeColor=#6881B3;gradientColor=none;gradientDirection=north;strokeWidth=2;shape=mxgraph.networks.laptop;fontSize=16;" parent="1" vertex="1">
          <mxGeometry x="880" y="730" width="170" height="110" as="geometry" />
        </mxCell>
        <mxCell id="G7csEVz0UXpxjY1oYoXJ-17" style="orthogonalLoop=1;jettySize=auto;html=1;exitX=0.5;exitY=0.07;exitDx=0;exitDy=0;exitPerimeter=0;endArrow=oval;endFill=1;shadow=0;sketch=0;rounded=0;endSize=0;startSize=0;startArrow=oval;startFill=1;strokeColor=#336600;fontSize=16;" parent="1" source="G7csEVz0UXpxjY1oYoXJ-18" target="G7csEVz0UXpxjY1oYoXJ-20" edge="1">
          <mxGeometry relative="1" as="geometry">
            <mxPoint x="530" y="397.5" as="targetPoint" />
          </mxGeometry>
        </mxCell>
        <mxCell id="G7csEVz0UXpxjY1oYoXJ-18" value="&lt;div style=&quot;font-size: 16px;&quot;&gt;&lt;font style=&quot;font-size: 16px;&quot; color=&quot;#0000CC&quot;&gt;PC30&lt;br style=&quot;font-size: 16px;&quot;&gt;&lt;/font&gt;&lt;/div&gt;&lt;div style=&quot;font-size: 16px;&quot;&gt;&lt;font style=&quot;font-size: 16px;&quot; color=&quot;#0000CC&quot;&gt;172.16.16.250&lt;/font&gt;&lt;/div&gt;" style="fontColor=#0066CC;verticalAlign=top;verticalLabelPosition=bottom;labelPosition=center;align=center;html=1;outlineConnect=0;fillColor=#CCCCCC;strokeColor=#6881B3;gradientColor=none;gradientDirection=north;strokeWidth=2;shape=mxgraph.networks.pc;fontSize=16;" parent="1" vertex="1">
          <mxGeometry x="480" y="670" width="220" height="140" as="geometry" />
        </mxCell>
        <mxCell id="G7csEVz0UXpxjY1oYoXJ-19" value="&lt;font style=&quot;font-size: 16px;&quot;&gt;Internet&lt;/font&gt;" style="html=1;outlineConnect=0;fillColor=#CCCCCC;strokeColor=#6881B3;gradientColor=none;gradientDirection=north;strokeWidth=2;shape=mxgraph.networks.cloud;fontColor=#ffffff;fontSize=16;" parent="1" vertex="1">
          <mxGeometry x="790" y="170" width="255" height="110" as="geometry" />
        </mxCell>
        <mxCell id="G7csEVz0UXpxjY1oYoXJ-20" value="&lt;div style=&quot;font-size: 16px;&quot; align=&quot;left&quot;&gt;网关&lt;/div&gt;&lt;div style=&quot;font-size: 16px;&quot; align=&quot;left&quot;&gt;GW10&lt;br style=&quot;font-size: 16px;&quot;&gt;&lt;/div&gt;" style="shape=mxgraph.cisco.hubs_and_gateways.generic_gateway;html=1;pointerEvents=1;dashed=0;fillColor=#036897;strokeColor=#ffffff;strokeWidth=2;verticalLabelPosition=bottom;verticalAlign=top;align=left;outlineConnect=0;fontSize=16;" parent="1" vertex="1">
          <mxGeometry x="530" y="330" width="116" height="100" as="geometry" />
        </mxCell>
        <mxCell id="G7csEVz0UXpxjY1oYoXJ-39" style="edgeStyle=orthogonalEdgeStyle;rounded=0;sketch=0;orthogonalLoop=1;jettySize=auto;html=1;exitX=0.5;exitY=0;exitDx=0;exitDy=0;exitPerimeter=0;shadow=0;startArrow=oval;startFill=1;startSize=0;endArrow=oval;endFill=1;endSize=0;fontFamily=Helvetica;strokeColor=#CCCC00;fontSize=16;" parent="1" source="G7csEVz0UXpxjY1oYoXJ-21" target="G7csEVz0UXpxjY1oYoXJ-37" edge="1">
          <mxGeometry relative="1" as="geometry">
            <Array as="points">
              <mxPoint x="175" y="290" />
              <mxPoint x="330" y="290" />
            </Array>
          </mxGeometry>
        </mxCell>
        <mxCell id="G7csEVz0UXpxjY1oYoXJ-21" value="&lt;div style=&quot;font-size: 16px;&quot;&gt;VPN服务器&lt;/div&gt;&lt;div style=&quot;font-size: 16px;&quot;&gt;192.168.8.231&lt;/div&gt;&lt;div style=&quot;font-size: 16px;&quot;&gt;10.5.0.1&lt;br style=&quot;font-size: 16px;&quot;&gt;&lt;/div&gt;" style="shape=mxgraph.cisco.hubs_and_gateways.vpn_gateway;html=1;pointerEvents=1;dashed=0;fillColor=#036897;strokeColor=#ffffff;strokeWidth=2;verticalLabelPosition=bottom;verticalAlign=top;align=center;outlineConnect=0;fontSize=16;" parent="1" vertex="1">
          <mxGeometry x="90" y="311" width="170" height="102.5" as="geometry" />
        </mxCell>
        <mxCell id="G7csEVz0UXpxjY1oYoXJ-22" value="172.16.0.1/6" style="edgeLabel;html=1;align=center;verticalAlign=middle;resizable=0;points=[];fontSize=16;" parent="1" vertex="1" connectable="0">
          <mxGeometry x="698.0046888731031" y="399.99971169249955" as="geometry" />
        </mxCell>
        <mxCell id="G7csEVz0UXpxjY1oYoXJ-23" value="&lt;div style=&quot;font-size: 16px;&quot;&gt;192.168.8.166&lt;/div&gt;" style="text;html=1;align=center;verticalAlign=middle;resizable=0;points=[];autosize=1;fontFamily=Helvetica;fontSize=16;" parent="1" vertex="1">
          <mxGeometry x="643" y="340" width="120" height="20" as="geometry" />
        </mxCell>
        <mxCell id="G7csEVz0UXpxjY1oYoXJ-27" style="edgeStyle=none;rounded=0;sketch=0;orthogonalLoop=1;jettySize=auto;html=1;exitX=0.5;exitY=0;exitDx=0;exitDy=0;exitPerimeter=0;entryX=0.12;entryY=0.94;entryDx=0;entryDy=0;entryPerimeter=0;shadow=0;startArrow=oval;startFill=1;startSize=0;endArrow=oval;endFill=1;endSize=0;strokeColor=#336600;fontSize=16;" parent="1" source="G7csEVz0UXpxjY1oYoXJ-29" target="G7csEVz0UXpxjY1oYoXJ-20" edge="1">
          <mxGeometry relative="1" as="geometry" />
        </mxCell>
        <mxCell id="G7csEVz0UXpxjY1oYoXJ-34" style="edgeStyle=orthogonalEdgeStyle;rounded=0;sketch=0;orthogonalLoop=1;jettySize=auto;html=1;exitX=0.5;exitY=1;exitDx=0;exitDy=0;exitPerimeter=0;entryX=0.5;entryY=0.07;entryDx=0;entryDy=0;entryPerimeter=0;shadow=0;startArrow=oval;startFill=1;startSize=0;endArrow=oval;endFill=1;endSize=0;strokeColor=#336600;fontSize=16;" parent="1" source="G7csEVz0UXpxjY1oYoXJ-25" target="G7csEVz0UXpxjY1oYoXJ-33" edge="1">
          <mxGeometry relative="1" as="geometry" />
        </mxCell>
        <mxCell id="G7csEVz0UXpxjY1oYoXJ-25" value="&lt;div style=&quot;font-size: 16px;&quot; align=&quot;left&quot;&gt;SRV20&lt;/div&gt;" style="shape=mxgraph.cisco.servers.standard_host;html=1;pointerEvents=1;dashed=0;fillColor=#036897;strokeColor=#ffffff;strokeWidth=2;verticalLabelPosition=bottom;verticalAlign=top;align=left;outlineConnect=0;fontSize=16;" parent="1" vertex="1">
          <mxGeometry x="165" y="850" width="200" height="102.5" as="geometry" />
        </mxCell>
        <mxCell id="G7csEVz0UXpxjY1oYoXJ-31" style="edgeStyle=none;rounded=0;sketch=0;orthogonalLoop=1;jettySize=auto;html=1;exitX=0.5;exitY=1;exitDx=0;exitDy=0;exitPerimeter=0;entryX=0.5;entryY=0;entryDx=0;entryDy=0;entryPerimeter=0;shadow=0;startArrow=oval;startFill=1;startSize=0;endArrow=oval;endFill=1;endSize=0;strokeColor=#336600;fontSize=16;" parent="1" source="G7csEVz0UXpxjY1oYoXJ-29" target="G7csEVz0UXpxjY1oYoXJ-30" edge="1">
          <mxGeometry relative="1" as="geometry" />
        </mxCell>
        <mxCell id="G7csEVz0UXpxjY1oYoXJ-29" value="&lt;div style=&quot;font-size: 16px;&quot; align=&quot;left&quot;&gt;SRV10&lt;/div&gt;" style="shape=mxgraph.cisco.servers.standard_host;html=1;pointerEvents=1;dashed=0;fillColor=#036897;strokeColor=#ffffff;strokeWidth=2;verticalLabelPosition=bottom;verticalAlign=top;align=left;outlineConnect=0;fontSize=16;" parent="1" vertex="1">
          <mxGeometry x="170" y="515" width="190" height="92.5" as="geometry" />
        </mxCell>
        <mxCell id="G7csEVz0UXpxjY1oYoXJ-32" style="edgeStyle=none;rounded=0;sketch=0;orthogonalLoop=1;jettySize=auto;html=1;shadow=0;startArrow=oval;startFill=1;startSize=0;endArrow=oval;endFill=1;endSize=0;strokeColor=#000000;fontSize=16;" parent="1" source="G7csEVz0UXpxjY1oYoXJ-30" edge="1">
          <mxGeometry relative="1" as="geometry">
            <mxPoint x="295" y="737.5" as="targetPoint" />
          </mxGeometry>
        </mxCell>
        <mxCell id="G7csEVz0UXpxjY1oYoXJ-49" style="edgeStyle=orthogonalEdgeStyle;rounded=0;sketch=0;orthogonalLoop=1;jettySize=auto;html=1;exitX=0.5;exitY=1;exitDx=0;exitDy=0;exitPerimeter=0;entryX=0.5;entryY=0;entryDx=0;entryDy=0;entryPerimeter=0;shadow=0;startArrow=oval;startFill=1;startSize=0;endArrow=oval;endFill=1;endSize=0;fontFamily=Helvetica;fontSize=16;fontColor=#FF3333;strokeColor=#336600;" parent="1" source="G7csEVz0UXpxjY1oYoXJ-30" target="G7csEVz0UXpxjY1oYoXJ-25" edge="1">
          <mxGeometry relative="1" as="geometry" />
        </mxCell>
        <mxCell id="G7csEVz0UXpxjY1oYoXJ-30" value="&lt;div style=&quot;font-size: 16px;&quot; align=&quot;left&quot;&gt;BR10&lt;/div&gt;" style="shape=mxgraph.cisco.servers.standard_host;html=1;pointerEvents=1;dashed=0;fillColor=#036897;strokeColor=#ffffff;strokeWidth=2;verticalLabelPosition=bottom;verticalAlign=top;align=left;outlineConnect=0;fontSize=16;" parent="1" vertex="1">
          <mxGeometry x="165" y="690" width="200" height="82.5" as="geometry" />
        </mxCell>
        <mxCell id="G7csEVz0UXpxjY1oYoXJ-33" value="&lt;div style=&quot;font-size: 16px;&quot;&gt;PC20&lt;/div&gt;&lt;div style=&quot;font-size: 16px;&quot;&gt;172.16.15.250/16&lt;br style=&quot;font-size: 16px;&quot;&gt;&lt;/div&gt;" style="verticalAlign=top;verticalLabelPosition=bottom;labelPosition=center;align=center;html=1;outlineConnect=0;fillColor=#CCCCCC;strokeColor=#6881B3;gradientColor=none;gradientDirection=north;strokeWidth=2;shape=mxgraph.networks.pc;fontColor=#0000CC;fontSize=16;" parent="1" vertex="1">
          <mxGeometry x="720" y="900" width="200" height="160" as="geometry" />
        </mxCell>
        <mxCell id="G7csEVz0UXpxjY1oYoXJ-38" style="edgeStyle=orthogonalEdgeStyle;rounded=0;sketch=0;orthogonalLoop=1;jettySize=auto;html=1;entryX=0.5;entryY=0;entryDx=0;entryDy=0;entryPerimeter=0;shadow=0;startArrow=oval;startFill=1;startSize=0;endArrow=oval;endFill=1;endSize=0;fontFamily=Helvetica;strokeColor=#CCCC00;fontSize=16;" parent="1" source="G7csEVz0UXpxjY1oYoXJ-37" target="G7csEVz0UXpxjY1oYoXJ-20" edge="1">
          <mxGeometry relative="1" as="geometry">
            <Array as="points">
              <mxPoint x="376" y="290" />
              <mxPoint x="588" y="290" />
            </Array>
          </mxGeometry>
        </mxCell>
        <mxCell id="G7csEVz0UXpxjY1oYoXJ-41" style="edgeStyle=orthogonalEdgeStyle;rounded=0;sketch=0;orthogonalLoop=1;jettySize=auto;html=1;shadow=0;startArrow=oval;startFill=1;startSize=0;endArrow=oval;endFill=1;endSize=0;fontFamily=Helvetica;fontSize=16;strokeColor=#FF6666;" parent="1" target="G7csEVz0UXpxjY1oYoXJ-19" edge="1">
          <mxGeometry relative="1" as="geometry">
            <mxPoint x="460" y="231" as="sourcePoint" />
            <mxPoint x="625" y="231" as="targetPoint" />
            <Array as="points">
              <mxPoint x="460" y="225" />
            </Array>
          </mxGeometry>
        </mxCell>
        <mxCell id="G7csEVz0UXpxjY1oYoXJ-37" value="&lt;div style=&quot;font-size: 16px;&quot; align=&quot;left&quot;&gt;&lt;font style=&quot;font-size: 16px;&quot;&gt;光猫&lt;br style=&quot;font-size: 16px;&quot;&gt;&lt;/font&gt;&lt;/div&gt;" style="verticalAlign=top;verticalLabelPosition=bottom;labelPosition=center;align=left;html=1;outlineConnect=0;fillColor=#CCCCCC;strokeColor=#6881B3;gradientColor=none;gradientDirection=north;strokeWidth=2;shape=mxgraph.networks.wireless_modem;fontColor=#FF3333;fontSize=16;" parent="1" vertex="1">
          <mxGeometry x="292" y="130" width="168" height="117.5" as="geometry" />
        </mxCell>
        <mxCell id="Wh6clQ4jutPT7yRsvnwL-1" value="VPN访问串联内网实验2网络结构图" style="text;html=1;align=center;verticalAlign=middle;resizable=0;points=[];autosize=1;fontSize=24;fontStyle=4" vertex="1" parent="1">
          <mxGeometry x="384" y="1160" width="390" height="30" as="geometry" />
        </mxCell>
      </root>
    </mxGraphModel>
  </diagram>
</mxfile>
